<svg xmlns="http://www.w3.org/2000/svg" width="32" height="32"><path d="M15.998.1C7.231.1.1 7.234.1 16.003.1 24.769 7.231 31.9 15.998 31.9c8.769 0 15.902-7.132 15.902-15.897C31.9 7.234 24.766.1 15.998.1zm0 31C7.673 31.1.9 24.327.9 16.003.9 7.675 7.673.9 15.998.9 24.325.9 31.1 7.675 31.1 16.003c0 8.324-6.775 15.097-15.102 15.097z"/><path d="M16 15.952a4.57 4.57 0 0 0 4.565-4.564A4.57 4.57 0 0 0 16 6.821a4.572 4.572 0 0 0-4.566 4.567A4.57 4.57 0 0 0 16 15.952zm0-8.331a3.77 3.77 0 0 1 3.765 3.767A3.77 3.77 0 0 1 16 15.152a3.769 3.769 0 0 1-3.766-3.764A3.77 3.77 0 0 1 16 7.621zm0 9.554c-4.194 0-7.607 3.412-7.607 7.606a.4.4 0 1 0 .8 0A6.814 6.814 0 0 1 16 17.975a6.814 6.814 0 0 1 6.806 6.806.4.4 0 1 0 .8 0c0-4.194-3.412-7.606-7.606-7.606z"/></svg>