<?xml version="1.0" encoding="utf-8"?>
<svg width="445" height="81" viewBox="0 0 445 81" fill="none" xmlns="http://www.w3.org/2000/svg">
<path d="M114.944 51.6798V63.1569H0.325684V51.6798H114.944Z" fill="#04723E"/>
<path d="M149.624 37.7837V63.1589H137.392V0.393433H149.624V26.8446H180.884V0.393433H193.116V63.1589H180.884V37.7837H149.624Z" fill="#231F20"/>
<path d="M231.619 46.9309L241.496 50.7865C238.596 58.8564 231.801 64.0569 221.471 64.0569C208.243 64.0569 198.729 55.2698 198.729 41.6407C198.729 29.5359 207.246 19.7625 220.112 19.7625C231.982 19.7625 240.046 27.115 240.046 38.8611C240.046 40.744 239.865 42.4477 239.502 44.0616H210.327C210.508 50.7865 215.854 54.1938 221.652 54.1938C227.18 54.1938 230.351 51.4097 231.619 46.9309ZM210.327 36.4401H228.72C228.72 36.4401 228.81 36.2608 228.81 36.0815C228.81 31.7776 225.277 28.9979 220.112 28.9979C215.491 28.9979 211.414 31.6879 210.327 36.4401Z" fill="#231F20"/>
<path d="M245.031 50.8762C245.031 41.4614 252.098 37.2471 261.793 37.2471C264.24 37.2471 266.686 37.5161 269.132 38.1438L272.938 39.0404V36.3505C272.938 31.4189 269.314 28.7289 264.149 28.7289C258.803 28.7289 255.723 31.6879 254.816 35.8125L244.759 33.1225C247.024 25.232 253.548 19.7625 264.24 19.7625C277.378 19.7625 283.992 26.039 283.992 36.9781V63.1603H273.391V56.6147C270.673 61.367 266.414 64.0569 259.166 64.0569C251.917 64.0569 245.031 59.2105 245.031 50.8762ZM272.938 47.4689V47.1103L270.31 46.3033C267.683 45.4963 265.599 45.048 263.605 45.048C259.528 45.048 256.81 46.7516 256.81 50.1589C256.81 53.1178 259.075 55.2698 263.787 55.2698C268.951 55.2653 272.938 52.4857 272.938 47.4689Z" fill="#231F20"/>
<path d="M293.233 0.394897H304.83V63.1604H293.233V0.394897Z" fill="#231F20"/>
<path d="M318.963 48.8134V30.0734H310.084V20.6586H318.963V6.6709H330.47V20.6586H346.599V30.0734H330.47V48.8134C330.47 52.2207 332.645 53.9243 335.363 53.9243C338.444 53.9243 340.075 51.9517 340.437 48.0064L351.129 49.9791C349.951 58.7662 344.243 64.0565 335.091 64.0565C324.4 64.052 318.963 57.9548 318.963 48.8134Z" fill="#231F20"/>
<path d="M354.575 63.1555V0.390015H366.173V28.2758C368.891 22.7166 374.237 19.7576 380.398 19.7576C390.365 19.7576 396.164 26.3032 396.164 35.8973V63.1555H384.657V38.5873C384.657 32.7591 381.486 29.2621 375.868 29.2621C370.431 29.2621 366.173 33.566 366.173 41.0979V63.1555H354.575Z" fill="#231F20"/>
<path d="M445 20.6597L415.733 80.9145H403.954L415.462 57.1533L398.246 20.6597H410.387L421.442 44.8692L433.221 20.6597H445Z" fill="#231F20"/>
<path d="M35.9621 7.06124H21.8636V39.5424H14.1574V7.06124H0V0.00012207H35.9621V7.06124Z" fill="#231F20"/>
<path d="M48.9776 23.555V39.5422H41.2715V0H48.9776V16.6642H68.6712V0H76.3773V39.5467H68.6712V23.555H48.9776Z" fill="#231F20"/>
<path d="M114.167 0V7.06111H91.8456V15.6465H112.454V22.7076H91.8456V32.4811H114.738V39.5422H84.1394V0H114.167Z" fill="#231F20"/>
</svg>
